<svg width="22" height="20" viewBox="0 0 22 20" fill="none" xmlns="http://www.w3.org/2000/svg">
<path fill-rule="evenodd" clip-rule="evenodd" d="M18.0076 3.34H3.65259C2.09929 3.34 0.840088 4.5992 0.840088 6.1525V7.02127H20.8201V6.15249C20.8201 4.59919 19.5609 3.34 18.0076 3.34ZM0.840088 15.0075V8.70877H20.8201V15.0075C20.8201 16.5608 19.5609 17.82 18.0076 17.82H3.65259C2.09929 17.82 0.840088 16.5608 0.840088 15.0075ZM11.7383 12.4512C11.2723 12.4512 10.8945 12.8289 10.8945 13.2949C10.8945 13.7609 11.2723 14.1387 11.7383 14.1387H16.2792C16.7452 14.1387 17.1229 13.7609 17.1229 13.2949C17.1229 12.8289 16.7452 12.4512 16.2792 12.4512H11.7383Z" fill="#00C9B6"/>
</svg>
