<svg width="20" height="20" viewBox="0 0 20 20" fill="none" xmlns="http://www.w3.org/2000/svg">
<path d="M3.75 8.33328C3.75 7.9881 4.02982 7.70828 4.375 7.70828H15.625C15.9702 7.70828 16.25 7.9881 16.25 8.33328C16.25 8.67846 15.9702 8.95828 15.625 8.95828H4.375C4.02982 8.95828 3.75 8.67846 3.75 8.33328Z" fill="white"/>
<path d="M6.5625 12.2917C6.5625 11.9465 6.84232 11.6667 7.1875 11.6667H12.8125C13.1577 11.6667 13.4375 11.9465 13.4375 12.2917C13.4375 12.6369 13.1577 12.9167 12.8125 12.9167H7.1875C6.84232 12.9167 6.5625 12.6369 6.5625 12.2917Z" fill="white"/>
<path d="M8.4375 16.25C8.4375 15.9048 8.71732 15.625 9.0625 15.625H10.9375C11.2827 15.625 11.5625 15.9048 11.5625 16.25C11.5625 16.5952 11.2827 16.875 10.9375 16.875H9.0625C8.71732 16.875 8.4375 16.5952 8.4375 16.25Z" fill="white"/>
<path d="M1.875 4.375C1.875 4.02982 2.15482 3.75 2.5 3.75H17.5C17.8452 3.75 18.125 4.02982 18.125 4.375C18.125 4.72018 17.8452 5 17.5 5H2.5C2.15482 5 1.875 4.72018 1.875 4.375Z" fill="white"/>
</svg>
