<svg width="20" height="20" viewBox="0 0 20 20" fill="none" xmlns="http://www.w3.org/2000/svg">
<path d="M17.0414 15.875L12.7086 11.5414C13.375 10.6664 13.75 9.54144 13.75 8.33284C13.75 5.33284 11.3336 2.91644 8.33358 2.91644C5.33358 2.91644 2.91638 5.33364 2.91638 8.33364C2.91638 11.3336 5.33278 13.75 8.33278 13.75C9.54138 13.75 10.6242 13.375 11.5414 12.7086L15.875 17.0422C16.0414 17.2086 16.25 17.2922 16.4586 17.2922C16.6672 17.2922 16.875 17.2086 17.0422 17.0422C17.375 16.7086 17.375 16.2086 17.0414 15.8751L17.0414 15.875ZM8.33358 12.0836C6.24998 12.0836 4.58358 10.4172 4.58358 8.33364C4.58358 6.25004 6.24998 4.58364 8.33358 4.58364C10.4172 4.58364 12.0836 6.25004 12.0836 8.33364C12.0836 10.4164 10.4164 12.0836 8.33358 12.0836Z" fill="white"/>
</svg>
