<svg width="38" height="38" viewBox="0 0 38 38" fill="none" xmlns="http://www.w3.org/2000/svg">
<circle cx="19" cy="19" r="18.5" fill="#EAFCF2" stroke="#E0FCEB"/>
<path d="M24.1644 24.7681L24.1644 24.768L26.755 13.497C26.755 13.4965 26.7551 13.4961 26.7551 13.4956C26.7563 13.4778 26.7575 13.4498 26.7567 13.4154C26.7548 13.3428 26.7443 13.2608 26.7188 13.1899C26.6945 13.1221 26.6634 13.0821 26.6279 13.0572C26.5951 13.0342 26.5126 12.9914 26.3236 12.9998L26.3229 12.9998C25.8827 13.0187 25.3168 13.2334 24.3714 13.644C24.2461 13.6984 24.1154 13.7557 23.9789 13.8154C23.1181 14.1924 22.0281 14.6696 20.6197 15.1769L20.6197 15.1769C18.5577 15.9195 17.0895 16.2406 16.0324 16.267C14.9654 16.2936 14.2483 16.019 13.799 15.498C13.3748 15.0062 13.2751 14.3813 13.2137 13.9452C13.207 13.898 13.2009 13.8533 13.1951 13.8108C13.1712 13.6366 13.1525 13.5006 13.1237 13.3803C13.0906 13.2426 13.0603 13.2041 13.0574 13.2004C13.0571 13.2001 13.0571 13.2001 13.0574 13.2003L13.3988 12.8351L13.0578 13.2007C12.7719 12.934 12.5653 12.9105 12.4379 12.9271C12.2862 12.9468 12.1319 13.0398 12.0017 13.1734L12.0016 13.1735C11.7853 13.3953 11.6975 13.7426 11.7589 14.152L24.1644 24.7681ZM24.1644 24.7681C24.157 24.8006 24.105 24.9185 23.9663 25.0674M24.1644 24.7681L23.9663 25.0674M23.9663 25.0674C23.8363 25.2069 23.6645 25.3357 23.4735 25.4146M23.9663 25.0674L23.4735 25.4146M23.4735 25.4146C23.274 25.4964 23.0741 25.5252 22.8767 25.4753C22.682 25.426 22.4273 25.2843 22.1439 24.91M23.4735 25.4146L22.1439 24.91M22.1439 24.91C21.9104 24.6013 21.6845 24.2247 21.4413 23.8194C21.3804 23.7179 21.3184 23.6146 21.2549 23.5101C20.9544 23.0152 20.614 22.4819 20.2299 22.1204C20.0339 21.936 19.7997 21.7698 19.5242 21.6868C19.2351 21.5997 18.9307 21.6139 18.6312 21.7458C18.0776 21.9897 17.5963 22.6112 17.1259 23.5487C16.244 25.3058 15.4952 25.544 15.1258 25.4902C14.9192 25.4601 14.7083 25.3341 14.5205 25.11C14.3328 24.8861 14.1924 24.5907 14.1276 24.2912C14.1276 24.2912 14.1276 24.2911 14.1276 24.2911L13.6389 24.3968C13.4884 23.7007 13.164 22.3816 12.8005 20.9038C12.1741 18.3571 11.4319 15.3391 11.2645 14.2264L11.7589 14.1522L22.1439 24.91Z" stroke="#02CAB5"/>
</svg>
