<svg width="17" height="14" viewBox="0 0 17 14" fill="none" xmlns="http://www.w3.org/2000/svg">
<path d="M1.13774 1.30601L1.13766 1.30609C0.975643 1.47225 0.891058 1.75225 0.946796 2.12376L1.13774 1.30601ZM1.13774 1.30601C1.25 1.19084 1.36745 1.12784 1.46244 1.11547C1.52212 1.1077 1.66729 1.10456 1.90676 1.32C1.9128 1.3342 1.92484 1.36605 1.93891 1.42465C1.96538 1.53494 1.98245 1.65926 2.00614 1.83191C2.0121 1.87529 2.01847 1.92171 2.02551 1.97173C2.08658 2.40529 2.19042 3.08332 2.65515 3.62213C3.15444 4.201 3.93634 4.48434 5.03718 4.45689C6.12424 4.42978 7.61492 4.10086 9.68406 3.35566L9.68408 3.35566M1.13774 1.30601L9.68408 3.35566M9.68408 3.35566C11.0988 2.84608 12.1947 2.36624 13.0556 1.98926C13.1919 1.92959 13.3223 1.87249 13.4471 1.81827C14.4015 1.40371 14.933 1.20672 15.3311 1.18961L15.332 1.18957M9.68408 3.35566L15.332 1.18957M15.332 1.18957C15.412 1.18602 15.461 1.194 15.4869 1.20068C15.4999 1.20402 15.5079 1.20725 15.5123 1.20922C15.5165 1.21117 15.5184 1.21246 15.5187 1.21267L15.5192 1.2131C15.5194 1.2133 15.5204 1.21435 15.5221 1.21678C15.5258 1.22194 15.5326 1.23342 15.54 1.25411C15.5563 1.29961 15.5652 1.35983 15.5667 1.42012C15.5672 1.44011 15.5668 1.45717 15.5663 1.46993M15.332 1.18957L15.5663 1.46993M15.5663 1.46993L12.9793 12.7254C12.9797 12.7234 12.9792 12.7246 12.9773 12.7284C12.9687 12.7468 12.9309 12.8267 12.8273 12.9379C12.7132 13.0604 12.5634 13.1718 12.4014 13.2388C12.2285 13.3097 12.0712 13.3285 11.9233 13.291C11.7795 13.2546 11.559 13.1435 11.2955 12.7954L15.5663 1.46993ZM11.2954 12.7953C11.0687 12.4956 10.8495 12.1303 10.6071 11.7263C10.5455 11.6237 10.4824 11.5186 10.4173 11.4114C10.1184 10.9192 9.76575 10.3638 9.36009 9.98201C9.15187 9.78607 8.89264 9.5993 8.57897 9.50483C8.24653 9.40471 7.89554 9.42173 7.5546 9.57194C6.93533 9.84477 6.42871 10.5215 5.95614 11.4635C5.08016 13.2087 4.38986 13.3367 4.15321 13.3022C4.00464 13.2805 3.83265 13.1867 3.66609 12.9879C3.49974 12.7894 3.37215 12.5227 3.31332 12.251C3.31331 12.251 3.3133 12.2509 3.31328 12.2509L2.63889 12.3968L11.2954 12.7953Z" stroke="#716E89" stroke-width="1.38"/>
</svg>
